<mxfile host="65bd71144e">
    <diagram id="Njb3dAHsTxfqt9kJadIH" name="Page-1">
        <mxGraphModel dx="703" dy="244" grid="1" gridSize="10" guides="1" tooltips="1" connect="1" arrows="1" fold="1" page="1" pageScale="1" pageWidth="850" pageHeight="1100" math="0" shadow="0">
            <root>
                <mxCell id="0"/>
                <mxCell id="1" parent="0"/>
                <mxCell id="2" value="" style="fontColor=#0066CC;verticalAlign=top;verticalLabelPosition=bottom;labelPosition=center;align=center;html=1;outlineConnect=0;fillColor=#CCCCCC;strokeColor=#6881B3;gradientColor=none;gradientDirection=north;strokeWidth=2;shape=mxgraph.networks.user_male;" vertex="1" parent="1">
                    <mxGeometry x="380" y="80" width="40" height="100" as="geometry"/>
                </mxCell>
                <mxCell id="3" value="" style="fontColor=#0066CC;verticalAlign=top;verticalLabelPosition=bottom;labelPosition=center;align=center;html=1;outlineConnect=0;fillColor=#CCCCCC;strokeColor=#6881B3;gradientColor=none;gradientDirection=north;strokeWidth=2;shape=mxgraph.networks.user_male;" vertex="1" parent="1">
                    <mxGeometry x="260" y="80" width="40" height="100" as="geometry"/>
                </mxCell>
                <mxCell id="4" value="" style="fontColor=#0066CC;verticalAlign=top;verticalLabelPosition=bottom;labelPosition=center;align=center;html=1;outlineConnect=0;fillColor=#CCCCCC;strokeColor=#6881B3;gradientColor=none;gradientDirection=north;strokeWidth=2;shape=mxgraph.networks.user_male;" vertex="1" parent="1">
                    <mxGeometry x="500" y="80" width="40" height="100" as="geometry"/>
                </mxCell>
                <mxCell id="5" value="" style="fontColor=#0066CC;verticalAlign=top;verticalLabelPosition=bottom;labelPosition=center;align=center;html=1;outlineConnect=0;fillColor=#CCCCCC;strokeColor=#6881B3;gradientColor=none;gradientDirection=north;strokeWidth=2;shape=mxgraph.networks.mobile;" vertex="1" parent="1">
                    <mxGeometry x="320.27" y="87.95" width="20" height="30" as="geometry"/>
                </mxCell>
                <mxCell id="6" value="" style="aspect=fixed;perimeter=ellipsePerimeter;html=1;align=center;shadow=0;dashed=0;spacingTop=3;image;image=img/lib/active_directory/key.svg;" vertex="1" parent="1">
                    <mxGeometry x="310" y="130" width="40.54" height="30" as="geometry"/>
                </mxCell>
                <mxCell id="7" value="&lt;font style=&quot;font-size: 9px;&quot;&gt;&lt;br&gt;&lt;/font&gt;" style="whiteSpace=wrap;html=1;shape=mxgraph.basic.cloud_callout" vertex="1" parent="1">
                    <mxGeometry x="425" y="60" width="35" height="30" as="geometry"/>
                </mxCell>
                <mxCell id="8" value="" style="html=1;verticalLabelPosition=bottom;align=center;labelBackgroundColor=#ffffff;verticalAlign=top;strokeWidth=2;strokeColor=#0080F0;shadow=0;dashed=0;shape=mxgraph.ios7.icons.eye;fontSize=9;" vertex="1" parent="1">
                    <mxGeometry x="560" y="95.9" width="30" height="14.1" as="geometry"/>
                </mxCell>
                <mxCell id="11" value="" style="whiteSpace=wrap;html=1;shape=mxgraph.basic.oval_callout;fontSize=9;" vertex="1" parent="1">
                    <mxGeometry x="555" y="130" width="40" height="30" as="geometry"/>
                </mxCell>
                <mxCell id="12" value="&lt;b&gt;Besitz&lt;/b&gt;&lt;br&gt;Einmalpasswort, SchlÃ¼ssel, RFID" style="rounded=1;whiteSpace=wrap;html=1;fontSize=9;" vertex="1" parent="1">
                    <mxGeometry x="235" y="200" width="90" height="40" as="geometry"/>
                </mxCell>
                <mxCell id="13" value="&lt;b&gt;Wissen&lt;/b&gt;&lt;br&gt;Passwort, Sicherheitsfrage" style="rounded=1;whiteSpace=wrap;html=1;fontSize=9;" vertex="1" parent="1">
                    <mxGeometry x="355" y="200" width="90" height="40" as="geometry"/>
                </mxCell>
                <mxCell id="14" value="&lt;b&gt;Biometrie&lt;/b&gt;&lt;br&gt;Retina, Stimme" style="rounded=1;whiteSpace=wrap;html=1;fontSize=9;" vertex="1" parent="1">
                    <mxGeometry x="475" y="200" width="90" height="40" as="geometry"/>
                </mxCell>
            </root>
        </mxGraphModel>
    </diagram>
</mxfile>